<svg width="17" height="18" viewBox="0 0 17 18" fill="none" xmlns="http://www.w3.org/2000/svg">
<path d="M16.7592 10.5514C16.5575 10.3932 16.28 10.3733 16.0577 10.501C15.0038 11.1068 13.8898 11.4141 12.7467 11.4141C9.07378 11.4141 6.08577 8.42589 6.08577 4.75293C6.08577 3.6048 6.39341 2.49231 7.00022 1.44647C7.12909 1.22444 7.10997 0.946318 6.95192 0.743909C6.79395 0.5415 6.52874 0.455388 6.28206 0.526659C4.50775 1.03813 2.91078 2.12329 1.78537 3.58216C0.617373 5.09637 0 6.90984 0 8.8266C0 13.6089 3.89055 17.4997 8.67273 17.4997C10.5895 17.4997 12.4034 16.8825 13.9183 15.7149C15.3782 14.5897 16.4639 12.9937 16.9754 11.2206C17.0465 10.9743 16.9609 10.7096 16.7592 10.5514ZM8.67273 16.2419C4.58405 16.2419 1.25772 12.9154 1.25772 8.8266C1.25772 6.06817 2.83616 3.55793 5.23513 2.29635C4.96447 3.09165 4.82805 3.91328 4.82805 4.75293C4.82805 9.1194 8.38035 12.6718 12.7467 12.6718C13.5851 12.6718 14.4082 12.5348 15.2073 12.2632C13.9459 14.6627 11.4335 16.2419 8.67273 16.2419Z" fill="var(--color-background)"/>
</svg>
