<svg width="20" height="20" viewBox="0 0 20 20" fill="none" xmlns="http://www.w3.org/2000/svg">
<path d="M9.99895 16.7637C9.64248 16.7637 9.35364 17.0525 9.35364 17.409V19.3572C9.35364 19.7137 9.64248 20.0025 9.99895 20.0025C10.3554 20.0025 10.6443 19.7137 10.6443 19.3572V17.409C10.6443 17.0525 10.3554 16.7637 9.99895 16.7637Z" fill="var(--color-background)"/>
<path d="M9.99895 3.24054C10.3554 3.24054 10.6443 2.9517 10.6443 2.59523V0.647262C10.6443 0.290793 10.3554 0.00195312 9.99895 0.00195312C9.64248 0.00195312 9.35364 0.290793 9.35364 0.647262V2.59532C9.35364 2.9517 9.64248 3.24054 9.99895 3.24054Z" fill="var(--color-background)"/>
<path d="M4.30668 14.7827L2.92864 16.16C2.67654 16.4121 2.67646 16.8206 2.92838 17.0726C3.05443 17.1987 3.21963 17.2617 3.38483 17.2617C3.54994 17.2617 3.71506 17.1988 3.84102 17.0729L5.21906 15.6955C5.47116 15.4435 5.47124 15.035 5.21931 14.783C4.96721 14.5308 4.5586 14.5307 4.30668 14.7827Z" fill="var(--color-background)"/>
<path d="M15.2364 5.41015C15.4015 5.41015 15.5666 5.34725 15.6925 5.22129L17.0705 3.84394C17.3226 3.59193 17.3227 3.18341 17.0708 2.93139C16.8187 2.67912 16.41 2.67921 16.1581 2.93113L14.7801 4.30848C14.528 4.56049 14.5279 4.96902 14.7798 5.22112C14.906 5.34717 15.0712 5.41015 15.2364 5.41015Z" fill="var(--color-background)"/>
<path d="M3.23902 10.0008C3.23902 9.64431 2.95018 9.35547 2.59371 9.35547H0.645308C0.28884 9.35547 0 9.64431 0 10.0008C0 10.3572 0.28884 10.6461 0.645308 10.6461H2.59371C2.95009 10.6461 3.23902 10.3572 3.23902 10.0008Z" fill="var(--color-background)"/>
<path d="M19.3547 9.35547H17.4057C17.0492 9.35547 16.7604 9.64431 16.7604 10.0008C16.7604 10.3572 17.0492 10.6461 17.4057 10.6461H19.3547C19.7112 10.6461 20 10.3572 20 10.0008C20 9.64431 19.7112 9.35547 19.3547 9.35547Z" fill="var(--color-background)"/>
<path d="M4.30649 5.22105C4.43254 5.3471 4.59766 5.41009 4.76286 5.41009C4.92797 5.41009 5.09317 5.3471 5.21913 5.22114C5.47123 4.96913 5.47123 4.56052 5.21922 4.30859L3.84187 2.93124C3.58977 2.67914 3.18116 2.67923 2.92932 2.93116C2.67722 3.18317 2.67722 3.59178 2.92923 3.84371L4.30649 5.22105Z" fill="var(--color-background)">
<path d="M15.6936 14.7828C15.4415 14.5308 15.0328 14.5307 14.781 14.7827C14.5289 15.0347 14.5289 15.4433 14.7809 15.6954L16.1582 17.0727C16.2842 17.1988 16.4493 17.2617 16.6145 17.2617C16.7797 17.2617 16.9449 17.1988 17.0708 17.0728C17.3229 16.8208 17.3229 16.4122 17.0709 16.1601L15.6936 14.7828Z" fill="var(--color-background)"/>
<path d="M9.9997 4.19141C6.79621 4.19141 4.18994 6.79768 4.18994 10.0012C4.18994 13.2046 6.79621 15.8109 9.9997 15.8109C13.2032 15.8109 15.8094 13.2046 15.8094 10.0012C15.8094 6.79768 13.2032 4.19141 9.9997 4.19141ZM9.9997 14.5204C7.50777 14.5204 5.48056 12.4932 5.48056 10.0012C5.48056 7.50932 7.50777 5.48202 9.9997 5.48202C12.4915 5.48202 14.5187 7.50932 14.5187 10.0012C14.5187 12.493 12.4915 14.5204 9.9997 14.5204Z" fill="var(--color-background)"/>
</svg>
