<svg width="70" height="73" viewBox="0 0 70 73" fill="none" xmlns="http://www.w3.org/2000/svg">
<circle cx="35" cy="35" r="35" fill="#339933"/>
<g clip-path="url(#clip0_6634_8355)">
<mask id="mask0_6634_8355" style="mask-type:alpha" maskUnits="userSpaceOnUse" x="19" y="55" width="33" height="26">
<path fill-rule="evenodd" clip-rule="evenodd" d="M46.9315 60.2364C45.7201 57.6669 43.1064 55.8887 40.0774 55.8887C38.8873 55.8887 37.7613 56.1632 36.7593 56.6523C36.1944 56.1758 35.4647 55.8887 34.6678 55.8887C33.2497 55.8887 32.0439 56.7982 31.6021 58.0657C30.4976 58.1466 29.4954 58.596 28.718 59.2915C28.375 59.1893 28.0116 59.1344 27.6354 59.1344C26.1051 59.1344 24.7868 60.0422 24.1896 61.3486C21.5525 61.7098 19.5209 63.9716 19.5209 66.7079C19.5209 69.6955 21.9428 72.1175 24.9305 72.1175C25.3177 72.1175 25.6954 72.0768 26.0595 71.9995C26.5435 76.9248 30.6972 80.7729 35.7497 80.7729C40.4014 80.7729 44.2913 77.5111 45.2569 73.1499C45.5093 73.1826 45.7668 73.1994 46.0281 73.1994C49.3145 73.1994 51.9787 70.5353 51.9787 67.2488C51.9787 65.3419 51.0817 63.6444 49.6866 62.5554C49.3267 61.3161 48.2479 60.3826 46.9315 60.2364Z" fill="white"/>
</mask>
<g mask="url(#mask0_6634_8355)">
<circle cx="35" cy="35" r="35" fill="white"/>
</g>
</g>
<path d="M39.4892 36.2496C38.6984 37.0042 37.8645 38.0258 37.1066 39.3959C36.3577 36.6999 35.4138 34.7234 34.4596 33.2764C38.8379 18.6897 17.5 18.167 17.5 18.167C17.5 18.167 18.1229 36.3978 29.2667 35.9792C29.244 34.7584 29.0545 33.5241 28.789 32.3667C28.6154 31.6121 28.4089 30.8926 28.1956 30.2285C27.4831 28.0257 26.6787 26.4622 26.6787 26.4622C27.491 27.5505 28.2104 28.5891 28.8457 29.5655C31.0321 32.92 32.2256 35.5289 32.7804 36.9069C34.1499 39.8405 35.3797 44.6658 35.3797 52.5514C35.3797 53.4441 36.107 54.167 36.9988 54.167C37.8928 54.167 38.6189 53.4441 38.6189 52.5514C38.6189 49.9957 38.4953 47.7216 38.2718 45.6931C38.788 43.2177 39.5674 41.4606 40.3741 40.2161C40.904 39.2081 41.8808 37.4816 43.1969 35.719C44.369 34.1509 45.8144 32.5534 47.4493 31.413C47.4493 31.413 44.0967 35.1137 43.88 38.7363C53.1403 39.2183 53.5 24.6904 53.5 24.6904C53.5 24.6904 36.5529 25.2674 39.4892 36.2496Z" fill="white"/>
<defs>
<clipPath id="clip0_6634_8355">
<rect width="35.8333" height="16.6667" fill="white" transform="translate(17.5 55.833)"/>
</clipPath>
</defs>
</svg>
